<svg xmlns="http://www.w3.org/2000/svg" width="20" height="17" viewBox="0 0 20 17"><g><g><path fill="#fff" d="M1.762.312h16.57c.68 0 1.23.551 1.23 1.23v.29c0 .68-.55 1.23-1.23 1.23H1.762a1.23 1.23 0 0 1-1.23-1.23v-.29c0-.679.55-1.23 1.23-1.23zm0 6.812h16.57c.68 0 1.23.552 1.23 1.231v.258c0 .68-.55 1.23-1.23 1.23H1.762a1.23 1.23 0 0 1-1.23-1.23v-.258c0-.68.55-1.23 1.23-1.23zm0 6.782h16.57c.68 0 1.23.55 1.23 1.23v.258c0 .68-.55 1.23-1.23 1.23H1.762a1.23 1.23 0 0 1-1.23-1.23v-.257c0-.68.55-1.231 1.23-1.231z"/></g></g></svg>