<svg width="512" height="512" viewBox="0 0 512 512" fill="none" xmlns="http://www.w3.org/2000/svg">
<path d="M255.999 0C153.754 0 70.5723 83.182 70.5723 185.426C70.5723 312.314 236.511 498.593 243.576 506.461C250.212 513.852 261.798 513.839 268.422 506.461C275.487 498.593 441.426 312.314 441.426 185.426C441.424 83.182 358.243 0 255.999 0ZM255.999 278.719C204.557 278.719 162.707 236.868 162.707 185.426C162.707 133.984 204.558 92.134 255.999 92.134C307.44 92.134 349.29 133.985 349.29 185.427C349.29 236.869 307.44 278.719 255.999 278.719Z" fill="#398C6D"/>
</svg>
