<svg width="3963" height="3969" viewBox="0 0 3963 3969" fill="none" xmlns="http://www.w3.org/2000/svg">
<g clip-path="url(#clip0)">
<path fill-rule="evenodd" clip-rule="evenodd" d="M2062 0.0940193C3010.69 -6.34998 3586.97 411.284 3851 1088.09C3892.87 1195.41 3914.96 1312.94 3940 1438.09C3949.54 1485.78 3947.8 1533.58 3956 1584.09C3963.15 1628.12 3955.48 1676.39 3963 1724.09V1813.09C3962.33 1838.75 3961.66 1864.42 3961 1890.09C3952.7 1941.42 3954.01 1995.1 3945 2043.09C3931.44 2115.27 3924.48 2182.84 3905 2248.09C3821.05 2529.29 3701.55 2749.79 3488 2900.09C3409.72 2955.19 3320.32 2992.82 3210 3017.09L3107 3029.09H3077C3041.88 3034.58 2995.28 3029.34 2963 3023.09C2904.87 3011.83 2853.6 2998.01 2806 2977.09C2723.62 2940.87 2648.68 2880.62 2599 2811.09L2557 2742.09C2553 2733.76 2549 2725.43 2545 2717.09H2506C2496.33 2728.09 2486.66 2739.09 2477 2750.09C2450.27 2783.27 2417.58 2812.75 2384 2839.09C2271.84 2927.08 2167.42 2981.31 1999 3016.09C1956.65 3024.84 1871.09 3037.21 1821 3029.09H1784L1677 3020.09C1617.87 3009.04 1561.68 3000.69 1509 2984.09C1256.06 2904.36 1081.76 2733.1 987 2495.09C963.8 2436.81 950.748 2375.95 936 2308.09C920.387 2236.25 915.01 2155.75 915 2069.09C915.667 2040.76 916.333 2012.43 917 1984.09C919.333 1952.76 921.667 1921.43 924 1890.09C939.837 1801.36 950.875 1717.12 980 1642.09C1107.4 1313.88 1332.41 1090.5 1679 982.094C1758.21 957.314 1844.13 946.864 1937 931.094L2031 925.094H2080C2122.33 925.764 2164.66 926.431 2207 927.094C2228.66 928.424 2250.33 929.757 2272 931.094C2334.99 937.764 2397.99 944.431 2461 951.094C2556.49 968.924 2652.3 977.544 2743 1000.09C2818.6 1018.89 2891.88 1041.08 2963 1060.09C2945 1445.38 2927 1830.72 2909 2216.09C2902.53 2256.25 2906.78 2308.9 2913 2345.09C2918.38 2376.39 2918.77 2404.52 2927 2432.09C2952.27 2516.74 3005.34 2609.47 3130 2582.09C3242.84 2557.31 3295.89 2460.13 3337 2363.09C3457.66 2078.26 3465.36 1551.27 3350 1254.09C3212.05 898.714 2998.33 679.138 2643 541.094C2555.01 506.909 2457.82 491.43 2354 472.094L2234 462.094C2198.46 456.534 2121.42 454.115 2084 460.094L2009 462.094C1948.92 471.719 1886.84 470.328 1831 481.094C1738.46 498.935 1653.97 512.234 1572 538.094C1279.4 630.394 1041.94 791.622 876 1011.09C745.847 1183.23 653.558 1383.92 592 1626.09C569.9 1713.04 563.969 1805.24 548 1901.09C545 1953.75 542 2006.42 539 2059.09V2117.09L542 2234.09C545.333 2279.42 548.667 2324.76 552 2370.09C569.853 2470.6 582.587 2565.82 610 2653.09C728.316 3029.74 956 3269.36 1312 3408.09C1385.81 3436.86 1464.41 3452.57 1549 3471.09C1618.36 3486.28 1694.76 3487.75 1771 3500.09C1809.66 3501.42 1848.33 3502.76 1887 3504.09H1980L2082 3501.09C2135.99 3496.42 2189.99 3491.76 2244 3487.09C2388.18 3461.55 2528.11 3448.91 2661 3415.09C2762.79 3389.19 2862.31 3363.57 2959 3333.09C3008.33 3316.09 3057.66 3299.09 3107 3282.09V3748.09C3095.33 3752.76 3083.66 3757.43 3072 3762.09C3039.83 3775.3 3006.8 3786.96 2973 3800.09C2835.42 3853.52 2687.17 3884.44 2528 3919.09C2456.28 3934.71 2378.33 3939.13 2302 3952.09L2199 3961.09C2152.34 3963.42 2105.67 3965.76 2059 3968.09H1891C1837.48 3959.7 1780.69 3969.13 1730 3961.09L1647 3955.09C1568.31 3941.84 1490.21 3938.47 1416 3922.09C1141.35 3861.48 921.435 3780.07 722 3647.09C672.143 3613.85 626.173 3578.63 580 3542.09C559.667 3523.43 539.333 3504.77 519 3486.09C501.667 3469.76 484.333 3453.43 467 3437.09C447.333 3415.76 427.667 3394.43 408 3373.09C372.535 3328.72 336.032 3285.01 303 3238.09C202.648 3095.54 131.114 2929.3 75 2742.09C42.189 2632.62 31.675 2514.7 11 2390.09C1.653 2333.76 10.009 2272.71 1 2214.09C0.666667 2178.43 0.333333 2142.77 0 2107.09C0.666667 2080.43 1.33333 2053.77 2 2027.09C4 1989.43 6 1951.77 8 1914.09C21.764 1829.43 25.929 1744.82 43 1667.09C61.831 1581.35 78.224 1501.51 103 1423.09C248.906 961.264 512.154 618.234 869 367.094C1024.67 257.539 1206.71 168.294 1407 105.094C1475.01 83.633 1545.74 67.933 1618 50.094C1714.56 26.256 1817.86 24.066 1924 7.09402L2062 0.0940193ZM2082 1367.09L2036 1370.09C2004.34 1375.09 1972.67 1380.09 1941 1385.09C1828.52 1413.73 1717.79 1468.22 1655 1546.09C1578.7 1640.71 1533.5 1718.5 1499 1857.09C1487.95 1901.47 1487.99 1949.22 1480 1998.09C1471.44 2050.44 1475.61 2134.06 1484 2182.09C1490.06 2216.79 1491.03 2247.73 1499 2279.09C1533.49 2414.75 1601.88 2510.09 1724 2558.09C1762.61 2573.26 1805.61 2576.33 1853 2584.09C1878.21 2588.22 1913.35 2587 1937 2583.09C1965.82 2578.32 1990.53 2578.67 2016 2572.09C2090.39 2552.88 2138.04 2518.01 2188 2476.09C2250.68 2423.49 2285.58 2336.77 2313 2249.09C2388.11 2008.95 2371.48 1680.1 2398 1393.09C2363.67 1387.42 2329.34 1381.76 2295 1376.09C2229.42 1364.43 2156.16 1367.29 2082 1367.09Z" fill="#398C6D"/>
</g>
<defs>
<clipPath id="clip0">
<rect width="3963" height="3968.09" fill="white"/>
</clipPath>
</defs>
</svg>
