<svg width="983" height="974" viewBox="0 0 983 974" fill="none" xmlns="http://www.w3.org/2000/svg">
<path fill-rule="evenodd" clip-rule="evenodd" d="M570 3.69549e-06C774.987 -3.482 897.167 106.349 956 250C987.76 327.543 992.12 450.316 960 532C913.938 649.134 827.031 733.95 703 773C673.677 782.232 645.051 782.288 610 788C553.958 797.133 491.626 780.59 452 765C413.53 749.865 373.189 730.15 345 704L75 974L0 900L271 628C249.236 587.336 224.073 551.126 209 501C142.53 279.95 289.817 93.37 432 32C458.36 20.623 487.459 12.737 518 6L570 3.69549e-06ZM576 105L553 107L493 121C407.571 154.211 349.236 212.592 316 298C251.235 464.431 366.822 614.728 478 661C508.295 673.609 556.3 691.677 603 684C629.657 679.618 654.1 678.19 677 671C759.606 645.061 823.336 585.04 856 509C885.189 441.049 884.3 350.467 856 283C812.644 179.651 723 104.423 576 105Z" fill="white"/>
</svg>
