<svg width="512" height="294" viewBox="0 0 512 294" fill="none" xmlns="http://www.w3.org/2000/svg">
<path d="M507.399 261.471C506.023 259.167 497.511 240.671 456.551 202.655C413.671 162.847 419.431 169.311 471.079 100.479C502.535 58.559 515.111 32.959 511.175 22.015C507.431 11.583 484.295 14.335 484.295 14.335L407.367 14.783C407.367 14.783 401.671 14.015 397.415 16.543C393.287 19.039 390.631 24.799 390.631 24.799C390.631 24.799 378.439 57.247 362.183 84.831C327.911 143.039 314.183 146.111 308.583 142.495C295.559 134.079 298.823 108.639 298.823 90.591C298.823 34.175 307.367 10.655 282.151 4.57503C273.767 2.55903 267.623 1.21503 246.215 0.991027C218.759 0.703027 195.495 1.08703 182.343 7.51903C173.575 11.807 166.823 21.375 170.951 21.919C176.039 22.591 187.559 25.023 193.671 33.343C201.575 44.063 201.287 68.191 201.287 68.191C201.287 68.191 205.831 134.591 190.695 142.847C180.295 148.511 166.055 136.959 135.495 84.127C119.847 57.087 108.007 27.167 108.007 27.167C108.007 27.167 105.735 21.599 101.671 18.623C96.7431 15.007 89.8311 13.855 89.8311 13.855L16.6791 14.303C16.6791 14.303 5.70314 14.623 1.67114 19.391C-1.91286 23.647 1.38314 32.415 1.38314 32.415C1.38314 32.415 58.6631 166.399 123.495 233.951C182.983 295.871 250.503 291.807 250.503 291.807H281.095C281.095 291.807 290.343 290.783 295.047 285.695C299.399 281.023 299.239 272.255 299.239 272.255C299.239 272.255 298.631 231.199 317.703 225.151C336.487 219.199 360.615 264.831 386.183 282.399C405.511 295.679 420.199 292.767 420.199 292.767L488.583 291.807C488.583 291.807 524.359 289.599 507.399 261.471Z" fill="#398C6D"/>
</svg>
