<svg width="5200" height="3576" viewBox="0 0 5200 3576" fill="none" xmlns="http://www.w3.org/2000/svg">
<path fill-rule="evenodd" clip-rule="evenodd" d="M1755 0H3443V6L3865 12L4068 18L4120 19L4205 21L4326 29L4435 34L4530 43C4618.31 59.125 4705.68 74.371 4770 115C5108.15 328.6 5181.88 929.62 5195 1474H5200V2102H5195C5193.89 2184.49 5193.31 2277.89 5181 2355C5180.33 2374 5179.66 2393 5179 2412C5170.97 2462.09 5169.59 2520.48 5161 2569C5153.32 2612.36 5155.45 2648.98 5147 2691C5108.61 2882.01 5075.06 3065.2 4990 3208C4931.56 3306.12 4877.62 3390.54 4783 3452C4714.33 3496.61 4623.45 3515.11 4528 3533C4496 3536.33 4464 3539.66 4432 3543C4397.34 3544.67 4362.67 3546.34 4328 3548C4275.68 3556.23 4216.07 3547.27 4161 3556C4135 3556.67 4109 3557.34 4083 3558C4063 3558.33 4043 3558.66 4023 3559C3956.01 3560.67 3889.01 3562.34 3822 3564L3397 3570V3576H1805V3570C1637.68 3567.33 1470.35 3564.66 1303 3562C1217.68 3559.67 1132.35 3557.34 1047 3555H997C930.673 3551.67 864.34 3548.34 798 3545L676 3533C585.38 3516.15 504.3 3498.45 435 3462C355.981 3420.44 291.124 3346.76 245 3272C232.393 3251.57 223.905 3230.72 211 3210C157.945 3124.81 130.281 3022.88 100 2914C35.877 2683.43 11.848 2388.69 5 2105H0V1471H5C6.109 1389.06 6.873 1296.61 19 1220C25.649 1177.99 22.814 1136.76 29 1099C30 1081.34 31 1063.67 32 1046C40.944 995.67 42.439 942.71 52 891C87.945 696.61 124.888 508.08 211 364C273.537 259.36 325.6 178.088 430 115C495.025 75.706 579.9 58.962 668 43L773 33L885 28C943.345 18.794 1012.13 28.725 1074 19L1128 18L1321 12L1755 6V0ZM1955 816C1944.86 827.28 1950 894.19 1950 917V2657C1950 2674.04 1947.1 2755.72 1955 2759V2760L3566 1794C3566.67 1791.33 3567.33 1788.67 3568 1786C3555.03 1771.7 3534.5 1765.89 3518 1755C3485.78 1733.73 3451.52 1715.61 3418 1695C3300.78 1622.93 3181.34 1553.81 3063 1482C2815.78 1331.98 2567.92 1182.16 2318 1035C2259.34 999 2200.67 963 2142 927C2115.67 912 2089.34 897 2063 882L1955 816Z" fill="#398C6D"/>
</svg>
